<svg id="visual" viewBox="0 0 900 600" width="900" height="600" xmlns="http://www.w3.org/2000/svg" xmlns:xlink="http://www.w3.org/1999/xlink" version="1.1"><path d="M0 433L13.7 445.2C27.3 457.3 54.7 481.7 82 479.7C109.3 477.7 136.7 449.3 163.8 435C191 420.7 218 420.3 245.2 423C272.3 425.7 299.7 431.3 327 442.8C354.3 454.3 381.7 471.7 409 488C436.3 504.3 463.7 519.7 491 513.2C518.3 506.7 545.7 478.3 573 477.2C600.3 476 627.7 502 654.8 497.7C682 493.3 709 458.7 736.2 450.8C763.3 443 790.7 462 818 469.3C845.3 476.7 872.7 472.3 886.3 470.2L900 468L900 601L886.3 601C872.7 601 845.3 601 818 601C790.7 601 763.3 601 736.2 601C709 601 682 601 654.8 601C627.7 601 600.3 601 573 601C545.7 601 518.3 601 491 601C463.7 601 436.3 601 409 601C381.7 601 354.3 601 327 601C299.7 601 272.3 601 245.2 601C218 601 191 601 163.8 601C136.7 601 109.3 601 82 601C54.7 601 27.3 601 13.7 601L0 601Z" fill="#DBAD6A" stroke-linecap="round" stroke-linejoin="miter"></path></svg>